<?xml version="1.0" encoding="UTF-8" standalone="no"?>
<svg width="64" height="64" viewBox="0 0 64 64" version="1.1" xmlns="http://www.w3.org/2000/svg">
  <defs>
    <linearGradient id="quartzFill" x1="0%" y1="0%" x2="100%" y2="100%">
      <stop offset="0%" style="stop-color:#c084fc;stop-opacity:0.35" />
      <stop offset="100%" style="stop-color:#22d3ee;stop-opacity:0.20" />
    </linearGradient>
    <linearGradient id="quartzStroke" x1="0%" y1="0%" x2="100%" y2="100%">
      <stop offset="0%" style="stop-color:#e9d5ff" />
      <stop offset="50%" style="stop-color:#a855f7" />
      <stop offset="100%" style="stop-color:#22d3ee" />
    </linearGradient>
  </defs>
  <g fill="url(#quartzFill)" stroke="url(#quartzStroke)" stroke-width="2" stroke-linejoin="round">
    <path d="M 6,26 H 17 L 38,6 H 26 Z" />
    <path d="M 6,26 V 38 L 26,58 V 47 Z" />
    <path d="m 6,26 h 11 l 15,15 -6,6 z" />
    <path d="M 26,58 H 38 L 58,38 H 47 Z" />
    <path d="M 58,38 V 26 L 38,6 v 11 z" />
    <path d="M 38,6 V 17 L 23,32 17,26 Z" />
    <path d="M 26,58 V 47 l 15,-15 6,6 z" />
    <path d="M 58,38 H 47 L 32,23 38,17 Z" />
  </g>
</svg>
